<svg xmlns="http://www.w3.org/2000/svg" width="73.75" height="50.625" viewBox="0 0 73.75 50.625">
  <metadata><?xpacket begin="﻿" id="W5M0MpCehiHzreSzNTczkc9d"?>
<x:xmpmeta xmlns:x="adobe:ns:meta/" x:xmptk="Adobe XMP Core 5.6-c140 79.160451, 2017/05/06-01:08:21        ">
   <rdf:RDF xmlns:rdf="http://www.w3.org/1999/02/22-rdf-syntax-ns#">
      <rdf:Description rdf:about=""/>
   </rdf:RDF>
</x:xmpmeta>
                                                                                                    
                                                                                                    
                                                                                                    
                                                                                                    
                                                                                                    
                                                                                                    
                                                                                                    
                                                                                                    
                                                                                                    
                                                                                                    
                                                                                                    
                                                                                                    
                                                                                                    
                                                                                                    
                                                                                                    
                                                                                                    
                                                                                                    
                                                                                                    
                                                                                                    
                                                                                                    
                           
<?xpacket end="w"?></metadata>
<defs>
    <style>
      .cls-1 {
        fill: #fff;
        fill-rule: evenodd;
      }
    </style>
  </defs>
  <path id="logo-jump-svg" class="cls-1" d="M10.621,25.807a1.268,1.268,0,0,1-1.357,1.306,1.268,1.268,0,0,1-1.357-1.306V17.539a0.356,0.356,0,0,0-.356-0.357H2.472a0.357,0.357,0,0,0-.357.357v8.042c0,4.023,3.212,6.8,7.284,6.8a6.636,6.636,0,0,0,7.012-6.8V2.553A0.356,0.356,0,0,0,16.055,2.2H10.977a0.356,0.356,0,0,0-.357.356V25.807Zm17.551,0a1.282,1.282,0,0,1-1.4,1.306,1.256,1.256,0,0,1-1.312-1.306V2.553A0.356,0.356,0,0,0,25.1,2.2H20.022a0.356,0.356,0,0,0-.357.356V25.673a6.814,6.814,0,0,0,7.1,6.7c4.117,0,7.194-2.936,7.194-6.7V2.553A0.356,0.356,0,0,0,33.606,2.2H28.528a0.356,0.356,0,0,0-.357.356V25.807ZM70.183,2.2H61.944a0.357,0.357,0,0,0-.357.356V31.813a0.357,0.357,0,0,0,.357.357h5.078a0.357,0.357,0,0,0,.357-0.357V24.951a8.532,8.532,0,0,0,1.221.089l0.139,0,0,0c2.89,0,7.149-1.96,7.149-5.975V8.183c0-4.185-2.67-5.986-5.7-5.986m-0.09,7.892h0v8.38a1.358,1.358,0,0,1-2.714,0V8.362a1.281,1.281,0,0,1,1.4-1.3,1.256,1.256,0,0,1,1.312,1.305V10.09ZM51.187,2.44L47.775,13.6,44.363,2.44A0.344,0.344,0,0,0,44.034,2.2H37.573a0.356,0.356,0,0,0-.357.356V31.812a0.357,0.357,0,0,0,.357.357h5.115a0.357,0.357,0,0,0,.357-0.357V15.568a0.049,0.049,0,0,1,.094-0.018l4.149,10.2a0.527,0.527,0,0,0,.976,0l4.149-10.2a0.049,0.049,0,0,1,.094.018V31.812a0.357,0.357,0,0,0,.357.357h5.115a0.357,0.357,0,0,0,.357-0.357V2.553A0.356,0.356,0,0,0,57.977,2.2H51.516a0.344,0.344,0,0,0-.328.243M75.527,47.011H2.472a0.357,0.357,0,0,0-.357.357v5.078a0.357,0.357,0,0,0,.357.357H75.527a0.357,0.357,0,0,0,.357-0.357V47.368a0.357,0.357,0,0,0-.357-0.357" transform="translate(-2.125 -2.188)"/>
</svg>
